<svg width="60" height="20" viewBox="0 0 60 20" fill="none" xmlns="http://www.w3.org/2000/svg">
<rect width="60" height="20" rx="10" fill="#C1C1C1"/>
<path d="M19.116 5.004C19.956 5.004 20.6513 5.088 21.202 5.256C21.7527 5.41467 22.1587 5.676 22.42 6.04C22.6907 6.404 22.826 6.894 22.826 7.51C22.826 7.89267 22.7607 8.238 22.63 8.546C22.4993 8.854 22.3127 9.106 22.07 9.302C21.8367 9.498 21.566 9.62867 21.258 9.694V9.764C21.5753 9.82933 21.874 9.95067 22.154 10.128C22.434 10.296 22.658 10.5433 22.826 10.87C22.994 11.1873 23.078 11.6073 23.078 12.13C23.078 12.7367 22.938 13.2547 22.658 13.684C22.3873 14.1133 21.9953 14.44 21.482 14.664C20.9687 14.888 20.3573 15 19.648 15H16.176V5.004H19.116ZM19.284 9.078C19.8907 9.078 20.3107 8.966 20.544 8.742C20.7773 8.518 20.894 8.18667 20.894 7.748C20.894 7.3 20.754 6.978 20.474 6.782C20.2033 6.586 19.7693 6.488 19.172 6.488H18.052V9.078H19.284ZM18.052 10.52V13.502H19.424C20.0587 13.502 20.4973 13.362 20.74 13.082C20.992 12.802 21.118 12.4287 21.118 11.962C21.118 11.6633 21.062 11.4067 20.95 11.192C20.8473 10.9773 20.67 10.814 20.418 10.702C20.166 10.5807 19.816 10.52 19.368 10.52H18.052ZM27.74 7.272C28.3933 7.272 28.9533 7.412 29.42 7.692C29.896 7.96267 30.2647 8.35467 30.526 8.868C30.7873 9.372 30.918 9.988 30.918 10.716V11.612H26.27C26.2887 12.3027 26.4567 12.8393 26.774 13.222C27.1007 13.5953 27.558 13.782 28.146 13.782C28.6127 13.782 29.028 13.7353 29.392 13.642C29.756 13.5393 30.134 13.3947 30.526 13.208V14.622C30.1713 14.7993 29.8027 14.93 29.42 15.014C29.0373 15.098 28.566 15.14 28.006 15.14C27.2967 15.14 26.6667 15 26.116 14.72C25.5747 14.4307 25.15 13.9967 24.842 13.418C24.534 12.8393 24.38 12.1207 24.38 11.262C24.38 10.394 24.52 9.666 24.8 9.078C25.08 8.48067 25.472 8.03267 25.976 7.734C26.4893 7.426 27.0773 7.272 27.74 7.272ZM27.768 8.574C27.348 8.574 27.0073 8.728 26.746 9.036C26.494 9.33467 26.3447 9.78267 26.298 10.38H29.154C29.154 10.0253 29.1027 9.71267 29 9.442C28.8973 9.17133 28.7433 8.96133 28.538 8.812C28.342 8.65333 28.0853 8.574 27.768 8.574ZM35.548 7.272C36.4626 7.272 37.1626 7.48667 37.648 7.916C38.1333 8.336 38.376 8.99867 38.376 9.904V15H37.074L36.71 13.95H36.654C36.4486 14.2207 36.2386 14.4493 36.024 14.636C35.8093 14.8133 35.562 14.9393 35.282 15.014C35.002 15.098 34.666 15.14 34.274 15.14C33.854 15.14 33.476 15.056 33.14 14.888C32.804 14.72 32.538 14.4633 32.342 14.118C32.146 13.7633 32.048 13.32 32.048 12.788C32.048 12.004 32.3186 11.416 32.86 11.024C33.4013 10.6227 34.2133 10.4033 35.296 10.366L36.514 10.324V9.946C36.514 9.46067 36.4113 9.11533 36.206 8.91C36.0006 8.70467 35.7206 8.602 35.366 8.602C35.03 8.602 34.6893 8.658 34.344 8.77C34.008 8.882 33.6766 9.01267 33.35 9.162L32.776 7.93C33.1586 7.734 33.5833 7.57533 34.05 7.454C34.5166 7.33267 35.016 7.272 35.548 7.272ZM35.73 11.444C35.0673 11.472 34.6053 11.6073 34.344 11.85C34.0826 12.0833 33.952 12.4007 33.952 12.802C33.952 13.1567 34.0406 13.4133 34.218 13.572C34.4046 13.7307 34.6473 13.81 34.946 13.81C35.3846 13.81 35.758 13.6653 36.066 13.376C36.374 13.0773 36.528 12.6387 36.528 12.06V11.416L35.73 11.444ZM43.3119 13.726C43.5173 13.726 43.7133 13.7073 43.8999 13.67C44.0959 13.6233 44.2779 13.572 44.4459 13.516V14.832C44.2499 14.916 44.0119 14.986 43.7319 15.042C43.4519 15.1073 43.1393 15.14 42.7939 15.14C42.3646 15.14 41.9819 15.07 41.6459 14.93C41.3099 14.7807 41.0439 14.5287 40.8479 14.174C40.6613 13.8193 40.5679 13.3247 40.5679 12.69V8.742H39.6159V7.972L40.6799 7.356L41.2399 5.746H42.4159V7.412H44.3759V8.742H42.4159V12.676C42.4159 13.0307 42.4953 13.2967 42.6539 13.474C42.8219 13.642 43.0413 13.726 43.3119 13.726Z" fill="#6F6F6F"/>
</svg>
