<svg width="27" height="22" viewBox="0 0 27 22" fill="none" xmlns="http://www.w3.org/2000/svg">
<line x1="16" y1="11" x2="26" y2="11" stroke="#6F6F6F" stroke-width="2" stroke-linecap="round"/>
<line x1="1" y1="1" x2="26" y2="1" stroke="#6F6F6F" stroke-width="2" stroke-linecap="round"/>
<line x1="14" y1="21" x2="26" y2="21" stroke="#6F6F6F" stroke-width="2" stroke-linecap="round"/>
<path fill-rule="evenodd" clip-rule="evenodd" d="M12.9571 8.84594C13.0798 8.52969 12.9306 8.17077 12.6238 8.04427C12.3171 7.91778 11.969 8.0716 11.8463 8.38785L11.0492 10.4422C10.7586 10.2267 10.4002 10.0974 10.0043 10.0974H1.79588C0.575051 10.0974 -0.289429 11.327 0.0904089 12.5232L1.2654 16.2236C1.50683 16.9839 2.1949 17.4981 2.97087 17.4981H8.82931C9.60528 17.4981 10.2934 16.9839 10.5348 16.2236L11.7098 12.5232C11.7858 12.2839 11.8119 12.0433 11.7955 11.8114C11.8151 11.7796 11.8322 11.7454 11.8463 11.709L12.9571 8.84594ZM10.0043 11.3308H1.79588C1.38893 11.3308 1.10078 11.7407 1.22739 12.1394L2.40238 15.8398C2.48286 16.0933 2.71222 16.2647 2.97087 16.2647H8.82931C9.08797 16.2647 9.31732 16.0933 9.3978 15.8398L10.5728 12.1394C10.6994 11.7407 10.4112 11.3308 10.0043 11.3308ZM4.2921 19.8414C4.2921 20.3524 3.89038 20.7665 3.39483 20.7665C2.89928 20.7665 2.49756 20.3524 2.49756 19.8414C2.49756 19.3305 2.89928 18.9164 3.39483 18.9164C3.89038 18.9164 4.2921 19.3305 4.2921 19.8414ZM5.48846 19.8414C5.48846 21.0336 4.55111 22 3.39483 22C2.23855 22 1.3012 21.0336 1.3012 19.8414C1.3012 18.6493 2.23855 17.6829 3.39483 17.6829C4.55111 17.6829 5.48846 18.6493 5.48846 19.8414ZM9.07753 19.8414C9.07753 20.3524 8.67581 20.7665 8.18026 20.7665C7.68471 20.7665 7.28299 20.3524 7.28299 19.8414C7.28299 19.3305 7.68471 18.9164 8.18026 18.9164C8.67581 18.9164 9.07753 19.3305 9.07753 19.8414ZM10.2739 19.8414C10.2739 21.0336 9.33654 22 8.18026 22C7.02398 22 6.08663 21.0336 6.08663 19.8414C6.08663 18.6493 7.02398 17.6829 8.18026 17.6829C9.33654 17.6829 10.2739 18.6493 10.2739 19.8414Z" fill="#6F6F6F"/>
</svg>
