<svg width="60" height="20" viewBox="0 0 60 20" fill="none" xmlns="http://www.w3.org/2000/svg">
<rect width="60" height="20" rx="10" fill="#FFF4B8"/>
<path d="M14.566 15H9.176V5.004H14.566V6.502H11.052V9.05H14.342V10.548H11.052V13.488H14.566V15ZM20.2005 8.742H18.5205V15H16.6585V8.742H15.5665V7.902L16.6725 7.398V6.88C16.6725 6.22667 16.7658 5.71333 16.9525 5.34C17.1391 4.96667 17.4145 4.70067 17.7785 4.542C18.1425 4.374 18.5858 4.29 19.1085 4.29C19.4538 4.29 19.7665 4.32267 20.0465 4.388C20.3358 4.444 20.5925 4.50933 20.8165 4.584L20.3685 5.9C20.2285 5.85333 20.0698 5.81133 19.8925 5.774C19.7245 5.72733 19.5471 5.704 19.3605 5.704C19.0711 5.704 18.8565 5.81133 18.7165 6.026C18.5858 6.24067 18.5205 6.53933 18.5205 6.922V7.412H20.2005V8.742ZM25.1985 8.742H23.5185V15H21.6565V8.742H20.5645V7.902L21.6705 7.398V6.88C21.6705 6.22667 21.7638 5.71333 21.9505 5.34C22.1371 4.96667 22.4125 4.70067 22.7765 4.542C23.1405 4.374 23.5838 4.29 24.1065 4.29C24.4518 4.29 24.7645 4.32267 25.0445 4.388C25.3338 4.444 25.5905 4.50933 25.8145 4.584L25.3665 5.9C25.2265 5.85333 25.0678 5.81133 24.8905 5.774C24.7225 5.72733 24.5451 5.704 24.3585 5.704C24.0691 5.704 23.8545 5.81133 23.7145 6.026C23.5838 6.24067 23.5185 6.53933 23.5185 6.922V7.412H25.1985V8.742ZM29.2986 7.272C29.9519 7.272 30.5119 7.412 30.9786 7.692C31.4546 7.96267 31.8233 8.35467 32.0846 8.868C32.3459 9.372 32.4766 9.988 32.4766 10.716V11.612H27.8286C27.8473 12.3027 28.0153 12.8393 28.3326 13.222C28.6593 13.5953 29.1166 13.782 29.7046 13.782C30.1713 13.782 30.5866 13.7353 30.9506 13.642C31.3146 13.5393 31.6926 13.3947 32.0846 13.208V14.622C31.7299 14.7993 31.3613 14.93 30.9786 15.014C30.5959 15.098 30.1246 15.14 29.5646 15.14C28.8553 15.14 28.2253 15 27.6746 14.72C27.1333 14.4307 26.7086 13.9967 26.4006 13.418C26.0926 12.8393 25.9386 12.1207 25.9386 11.262C25.9386 10.394 26.0786 9.666 26.3586 9.078C26.6386 8.48067 27.0306 8.03267 27.5346 7.734C28.0479 7.426 28.6359 7.272 29.2986 7.272ZM29.3266 8.574C28.9066 8.574 28.5659 8.728 28.3046 9.036C28.0526 9.33467 27.9033 9.78267 27.8566 10.38H30.7126C30.7126 10.0253 30.6613 9.71267 30.5586 9.442C30.4559 9.17133 30.3019 8.96133 30.0966 8.812C29.9006 8.65333 29.6439 8.574 29.3266 8.574ZM37.0925 15.14C36.3925 15.14 35.7859 15.0047 35.2725 14.734C34.7685 14.454 34.3765 14.0293 34.0965 13.46C33.8259 12.8813 33.6905 12.144 33.6905 11.248C33.6905 10.3147 33.8399 9.55867 34.1385 8.98C34.4465 8.392 34.8665 7.96267 35.3985 7.692C35.9399 7.412 36.5512 7.272 37.2325 7.272C37.6619 7.272 38.0632 7.31867 38.4365 7.412C38.8192 7.50533 39.1365 7.61733 39.3885 7.748L38.8285 9.106C38.5765 9.00333 38.3245 8.91467 38.0725 8.84C37.8205 8.76533 37.5685 8.728 37.3165 8.728C36.9339 8.728 36.6165 8.82133 36.3645 9.008C36.1125 9.19467 35.9165 9.47467 35.7765 9.848C35.6459 10.212 35.5805 10.674 35.5805 11.234C35.5805 11.7753 35.6459 12.228 35.7765 12.592C35.9165 12.956 36.1125 13.2313 36.3645 13.418C36.6165 13.5953 36.9245 13.684 37.2885 13.684C37.6525 13.684 37.9885 13.6327 38.2965 13.53C38.6139 13.4273 38.9125 13.2873 39.1925 13.11V14.636C38.9032 14.8133 38.5952 14.9393 38.2685 15.014C37.9419 15.098 37.5499 15.14 37.0925 15.14ZM43.7631 13.726C43.9684 13.726 44.1644 13.7073 44.3511 13.67C44.5471 13.6233 44.7291 13.572 44.8971 13.516V14.832C44.7011 14.916 44.4631 14.986 44.1831 15.042C43.9031 15.1073 43.5904 15.14 43.2451 15.14C42.8158 15.14 42.4331 15.07 42.0971 14.93C41.7611 14.7807 41.4951 14.5287 41.2991 14.174C41.1124 13.8193 41.0191 13.3247 41.0191 12.69V8.742H40.0671V7.972L41.1311 7.356L41.6911 5.746H42.8671V7.412H44.8271V8.742H42.8671V12.676C42.8671 13.0307 42.9464 13.2967 43.1051 13.474C43.2731 13.642 43.4924 13.726 43.7631 13.726ZM51.2755 12.802C51.2755 13.306 51.1635 13.7353 50.9395 14.09C50.7155 14.4353 50.3842 14.6967 49.9455 14.874C49.5069 15.0513 48.9562 15.14 48.2935 15.14C47.7895 15.14 47.3509 15.1027 46.9775 15.028C46.6042 14.9533 46.2449 14.8367 45.8995 14.678V13.18C46.2729 13.3573 46.6742 13.5067 47.1035 13.628C47.5422 13.7493 47.9389 13.81 48.2935 13.81C48.7135 13.81 49.0169 13.7353 49.2035 13.586C49.3902 13.4367 49.4835 13.236 49.4835 12.984C49.4835 12.8347 49.4415 12.6993 49.3575 12.578C49.2829 12.4567 49.1242 12.3307 48.8815 12.2C48.6482 12.06 48.3075 11.8873 47.8595 11.682C47.4209 11.486 47.0569 11.29 46.7675 11.094C46.4782 10.898 46.2589 10.6647 46.1095 10.394C45.9602 10.114 45.8855 9.764 45.8855 9.344C45.8855 8.66267 46.1422 8.14933 46.6555 7.804C47.1782 7.44933 47.8595 7.272 48.6995 7.272C49.1569 7.272 49.5815 7.31867 49.9735 7.412C50.3749 7.496 50.7762 7.636 51.1775 7.832L50.6315 9.134C50.4075 9.03133 50.1789 8.94267 49.9455 8.868C49.7215 8.784 49.5022 8.71867 49.2875 8.672C49.0822 8.62533 48.8769 8.602 48.6715 8.602C48.3449 8.602 48.0975 8.66267 47.9295 8.784C47.7615 8.896 47.6775 9.05933 47.6775 9.274C47.6775 9.42333 47.7195 9.55867 47.8035 9.68C47.8875 9.792 48.0462 9.90867 48.2795 10.03C48.5129 10.1513 48.8442 10.3053 49.2735 10.492C49.7029 10.66 50.0669 10.842 50.3655 11.038C50.6642 11.2247 50.8882 11.458 51.0375 11.738C51.1962 12.018 51.2755 12.3727 51.2755 12.802Z" fill="#FDDE3C"/>
</svg>
