<svg width="54" height="17" viewBox="0 0 54 17" fill="none" xmlns="http://www.w3.org/2000/svg">
<rect y="1" width="54" height="16" rx="8" fill="#BECCFF"/>
<path d="M19.296 4.432L16.536 13H14.748L12 4.432H13.716L15.216 9.676C15.256 9.82 15.304 10.008 15.36 10.24C15.424 10.464 15.48 10.696 15.528 10.936C15.584 11.168 15.624 11.376 15.648 11.56C15.672 11.376 15.708 11.168 15.756 10.936C15.812 10.704 15.868 10.472 15.924 10.24C15.98 10.008 16.032 9.82 16.08 9.676L17.568 4.432H19.296ZM25.5341 9.736C25.5341 10.28 25.4661 10.76 25.3301 11.176C25.1941 11.592 24.9941 11.948 24.7301 12.244C24.4741 12.532 24.1621 12.752 23.7941 12.904C23.4261 13.048 23.0141 13.12 22.5581 13.12C22.1341 13.12 21.7381 13.048 21.3701 12.904C21.0101 12.752 20.6981 12.532 20.4341 12.244C20.1781 11.948 19.9781 11.592 19.8341 11.176C19.6901 10.76 19.6181 10.28 19.6181 9.736C19.6181 9.016 19.7341 8.408 19.9661 7.912C20.2061 7.408 20.5501 7.028 20.9981 6.772C21.4461 6.508 21.9781 6.376 22.5941 6.376C23.1701 6.376 23.6781 6.508 24.1181 6.772C24.5581 7.028 24.9021 7.408 25.1501 7.912C25.4061 8.408 25.5341 9.016 25.5341 9.736ZM21.2381 9.736C21.2381 10.192 21.2861 10.584 21.3821 10.912C21.4781 11.232 21.6221 11.476 21.8141 11.644C22.0141 11.812 22.2701 11.896 22.5821 11.896C22.8941 11.896 23.1461 11.812 23.3381 11.644C23.5381 11.476 23.6821 11.232 23.7701 10.912C23.8661 10.584 23.9141 10.192 23.9141 9.736C23.9141 9.272 23.8661 8.884 23.7701 8.572C23.6741 8.252 23.5261 8.012 23.3261 7.852C23.1341 7.684 22.8821 7.6 22.5701 7.6C22.0981 7.6 21.7581 7.784 21.5501 8.152C21.3421 8.52 21.2381 9.048 21.2381 9.736ZM29.5185 13.12C28.9185 13.12 28.3985 13.004 27.9585 12.772C27.5265 12.532 27.1905 12.168 26.9505 11.68C26.7185 11.184 26.6025 10.552 26.6025 9.784C26.6025 8.984 26.7305 8.336 26.9865 7.84C27.2505 7.336 27.6105 6.968 28.0665 6.736C28.5305 6.496 29.0545 6.376 29.6385 6.376C30.0065 6.376 30.3505 6.416 30.6705 6.496C30.9985 6.576 31.2705 6.672 31.4865 6.784L31.0065 7.948C30.7905 7.86 30.5745 7.784 30.3585 7.72C30.1425 7.656 29.9265 7.624 29.7105 7.624C29.3825 7.624 29.1105 7.704 28.8945 7.864C28.6785 8.024 28.5105 8.264 28.3905 8.584C28.2785 8.896 28.2225 9.292 28.2225 9.772C28.2225 10.236 28.2785 10.624 28.3905 10.936C28.5105 11.248 28.6785 11.484 28.8945 11.644C29.1105 11.796 29.3745 11.872 29.6865 11.872C29.9985 11.872 30.2865 11.828 30.5505 11.74C30.8225 11.652 31.0785 11.532 31.3185 11.38V12.688C31.0705 12.84 30.8065 12.948 30.5265 13.012C30.2465 13.084 29.9105 13.12 29.5185 13.12ZM35.2961 6.376C36.0801 6.376 36.6801 6.56 37.0961 6.928C37.5121 7.288 37.7201 7.856 37.7201 8.632V13H36.6041L36.2921 12.1H36.2441C36.0681 12.332 35.8881 12.528 35.7041 12.688C35.5201 12.84 35.3081 12.948 35.0681 13.012C34.8281 13.084 34.5401 13.12 34.2041 13.12C33.8441 13.12 33.5201 13.048 33.2321 12.904C32.9441 12.76 32.7161 12.54 32.5481 12.244C32.3801 11.94 32.2961 11.56 32.2961 11.104C32.2961 10.432 32.5281 9.928 32.9921 9.592C33.4561 9.248 34.1521 9.06 35.0801 9.028L36.1241 8.992V8.668C36.1241 8.252 36.0361 7.956 35.8601 7.78C35.6841 7.604 35.4441 7.516 35.1401 7.516C34.8521 7.516 34.5601 7.564 34.2641 7.66C33.9761 7.756 33.6921 7.868 33.4121 7.996L32.9201 6.94C33.2481 6.772 33.6121 6.636 34.0121 6.532C34.4121 6.428 34.8401 6.376 35.2961 6.376ZM35.4521 9.952C34.8841 9.976 34.4881 10.092 34.2641 10.3C34.0401 10.5 33.9281 10.772 33.9281 11.116C33.9281 11.42 34.0041 11.64 34.1561 11.776C34.3161 11.912 34.5241 11.98 34.7801 11.98C35.1561 11.98 35.4761 11.856 35.7401 11.608C36.0041 11.352 36.1361 10.976 36.1361 10.48V9.928L35.4521 9.952ZM41.003 13H39.407V3.88H41.003V13Z" fill="#4F76FF"/>
</svg>
