<svg width="28" height="27" viewBox="0 0 28 27" fill="none" xmlns="http://www.w3.org/2000/svg">
<g filter="url(#filter0_d_749_1089)">
<rect x="1" width="24" height="24" rx="12" fill="#828282"/>
<path fill-rule="evenodd" clip-rule="evenodd" d="M19.3002 6.63879C19.4135 6.35768 19.2757 6.03864 18.9926 5.9262C18.7095 5.81375 18.3881 5.95048 18.2749 6.23159L17.5391 8.05768C17.2708 7.8661 16.94 7.75117 16.5746 7.75117H8.99758C7.87066 7.75117 7.07268 8.84418 7.4233 9.90748L8.50791 13.1967C8.73077 13.8725 9.36591 14.3296 10.0822 14.3296H15.49C16.2063 14.3296 16.8414 13.8725 17.0643 13.1967L18.1489 9.90748C18.219 9.69477 18.2432 9.48088 18.228 9.27478C18.2461 9.24645 18.2618 9.21606 18.2749 9.18376L19.3002 6.63879ZM16.5746 8.84758H8.99758C8.62194 8.84758 8.35594 9.21192 8.47282 9.56635L9.55743 12.8556C9.63171 13.0809 9.84343 13.2332 10.0822 13.2332H15.49C15.7287 13.2332 15.9405 13.0809 16.0147 12.8556L17.0993 9.56635C17.2162 9.21192 16.9502 8.84758 16.5746 8.84758ZM11.3018 16.4126C11.3018 16.8667 10.931 17.2349 10.4735 17.2349C10.0161 17.2349 9.64528 16.8667 9.64528 16.4126C9.64528 15.9584 10.0161 15.5903 10.4735 15.5903C10.931 15.5903 11.3018 15.9584 11.3018 16.4126ZM12.4061 16.4126C12.4061 17.4722 11.5409 18.3313 10.4735 18.3313C9.4062 18.3313 8.54095 17.4722 8.54095 16.4126C8.54095 15.3529 9.4062 14.4939 10.4735 14.4939C11.5409 14.4939 12.4061 15.3529 12.4061 16.4126ZM15.7191 16.4126C15.7191 16.8667 15.3483 17.2349 14.8909 17.2349C14.4334 17.2349 14.0626 16.8667 14.0626 16.4126C14.0626 15.9584 14.4334 15.5903 14.8909 15.5903C15.3483 15.5903 15.7191 15.9584 15.7191 16.4126ZM16.8234 16.4126C16.8234 17.4722 15.9582 18.3313 14.8909 18.3313C13.8235 18.3313 12.9583 17.4722 12.9583 16.4126C12.9583 15.3529 13.8235 14.4939 14.8909 14.4939C15.9582 14.4939 16.8234 15.3529 16.8234 16.4126Z" fill="white"/>
</g>
<defs>
<filter id="filter0_d_749_1089" x="0.259259" y="0" width="26.963" height="26.963" filterUnits="userSpaceOnUse" color-interpolation-filters="sRGB">
<feFlood flood-opacity="0" result="BackgroundImageFix"/>
<feColorMatrix in="SourceAlpha" type="matrix" values="0 0 0 0 0 0 0 0 0 0 0 0 0 0 0 0 0 0 127 0" result="hardAlpha"/>
<feOffset dx="0.740741" dy="1.48148"/>
<feGaussianBlur stdDeviation="0.740741"/>
<feComposite in2="hardAlpha" operator="out"/>
<feColorMatrix type="matrix" values="0 0 0 0 0 0 0 0 0 0 0 0 0 0 0 0 0 0 0.25 0"/>
<feBlend mode="normal" in2="BackgroundImageFix" result="effect1_dropShadow_749_1089"/>
<feBlend mode="normal" in="SourceGraphic" in2="effect1_dropShadow_749_1089" result="shape"/>
</filter>
</defs>
</svg>
